<svg aria-hidden="true" style="position:absolute;width:0;height:0;overflow:hidden" xmlns="http://www.w3.org/2000/svg">
  <defs>
    <symbol id="search" viewBox="0 0 32 32">
      <path d="M3.333 14C3.333 8.109 8.109 3.333 14 3.333S24.667 8.109 24.667 14 19.891 24.667 14 24.667 3.333 19.891 3.333 14zM14 4.667a9.333 9.333 0 1 0 0 18.666 9.333 9.333 0 1 0 0-18.666z"/>
      <path d="M20.596 20.595c.26-.26.683-.26.943 0l6.933 6.933a.668.668 0 0 1-.943.943l-6.933-6.933a.668.668 0 0 1 0-.943z"/>
    </symbol>
  </defs>
</svg>